# xmcd
#
# Track frame offsets:
#	150
#	12539
#	25475
#	38569
#	49617
#	63352
#	77527
#	88636
#	101858
#	115774
#	128697
#	141998
#	156315
#	170564
#	184507
#	194916
#	206456
#	220394
#	234815
#	246988
#	259719
#	271796
#	285619
#	299524
#	312749
#
# Disc length: 4367 seconds
#
# Revision: 0
# Processed by: cddbd v1.5.1PL2 Copyright (c) Steve Scherf et al.
# Submitted via: dBpowerAMP V4.0
#
DISCID=75110d19
DTITLE=Huambaly - Los 100 Exitos inolvidables
DYEAR=2006
DGENRE=Latin
TTITLE0=Dilema para tambores
TTITLE1=El Bodeguero
TTITLE2=El castor ansioso
TTITLE3=El Embrollon
TTITLE4=El Guayabaero
TTITLE5=El Lechero
TTITLE6=El lorito y el carbon
TTITLE7=El manisero
TTITLE8=El merecumbe
TTITLE9=El Negro Vacilador
TTITLE10=El Patito Barrabas
TTITLE11=El Yerbero Moderno
TTITLE12=Empezo la Molienda
TTITLE13=Envidias
TTITLE14=Eso necesito
TTITLE15=Estrechame en tu corazon
TTITLE16=Gallo y Gallina
TTITLE17=Huambaly Rock
TTITLE18=Insolito
TTITLE19=Juanita bonita
TTITLE20=La Blusa Azul
TTITLE21=La del vestido rojo
TTITLE22=La media Naranja
TTITLE23=La radioactividad
TTITLE24=Las Mellizas
EXTD=EMI Music Chile, Radio Corazón FM, 363711-2
EXTT0=
EXTT1=
EXTT2=
EXTT3=
EXTT4=
EXTT5=
EXTT6=
EXTT7=
EXTT8=
EXTT9=
EXTT10=
EXTT11=
EXTT12=
EXTT13=
EXTT14=
EXTT15=
EXTT16=
EXTT17=
EXTT18=
EXTT19=
EXTT20=
EXTT21=
EXTT22=
EXTT23=
EXTT24=
PLAYORDER=
